<svg width="230" height="96" viewBox="0 0 230 96" fill="none" xmlns="http://www.w3.org/2000/svg">
<path id="Ellipse 24" d="M226.928 25.8031C229.21 31.234 228.46 37.0983 224.932 43.1098C221.403 49.1229 215.137 55.2022 206.579 60.988C189.469 72.5562 163.363 82.8398 132.311 89.0544C101.26 95.2689 71.2312 96.2198 47.8056 92.7643C36.0894 91.0361 26.0816 88.2139 18.4376 84.4369C10.7957 80.6608 5.61446 75.9836 3.3317 70.5528C1.04894 65.1219 1.79924 59.2576 5.32715 53.2461C8.85599 47.233 15.1223 41.1537 23.6801 35.3679C40.7908 23.7997 66.8965 13.5161 97.9481 7.30155C129 1.087 159.028 0.136116 182.454 3.59156C194.17 5.31978 204.178 8.14199 211.822 11.919C219.464 15.6951 224.645 20.3723 226.928 25.8031Z" stroke="white" stroke-width="2"/>
</svg>
