<svg width="20" height="19" viewBox="0 0 20 19" fill="none" xmlns="http://www.w3.org/2000/svg">
<g id="vuesax/outline/search-normal">
<g id="search-normal">
<path id="Vector" d="M9.52784 16.8664C5.14648 16.8664 1.57935 13.2992 1.57935 8.91786C1.57935 4.53649 5.14648 0.96936 9.52784 0.96936C13.9092 0.96936 17.4763 4.53649 17.4763 8.91786C17.4763 13.2992 13.9092 16.8664 9.52784 16.8664ZM9.52784 2.13255C5.78235 2.13255 2.74254 5.18012 2.74254 8.91786C2.74254 12.6556 5.78235 15.7032 9.52784 15.7032C13.2733 15.7032 16.3131 12.6556 16.3131 8.91786C16.3131 5.18012 13.2733 2.13255 9.52784 2.13255Z" fill="#A1A1AA"/>
<path id="Vector_2" d="M17.6702 17.6418C17.5229 17.6418 17.3755 17.5875 17.2592 17.4712L15.7083 15.9203C15.4834 15.6954 15.4834 15.3232 15.7083 15.0983C15.9332 14.8734 16.3054 14.8734 16.5303 15.0983L18.0812 16.6492C18.3061 16.8741 18.3061 17.2463 18.0812 17.4712C17.9649 17.5875 17.8175 17.6418 17.6702 17.6418Z" fill="#A1A1AA"/>
</g>
</g>
</svg>
