<svg width="40" height="40" viewBox="0 0 40 40" fill="none" xmlns="http://www.w3.org/2000/svg">
<g id="vuesax/outline/arrow-down">
<g id="arrow-down">
<path id="Vector" d="M4.5833 20C4.5833 20.3167 4.69996 20.6333 4.94996 20.8833L15.0666 31C15.55 31.4833 16.35 31.4833 16.8333 31C17.3166 30.5167 17.3166 29.7167 16.8333 29.2333L7.59997 20L16.8333 10.7667C17.3166 10.2833 17.3166 9.48332 16.8333 8.99999C16.35 8.51665 15.55 8.51665 15.0666 8.99999L4.94997 19.1167C4.69997 19.3667 4.5833 19.6833 4.5833 20Z" fill="black"/>
<path id="Vector_2" d="M4.86663 20C4.86663 20.6833 5.4333 21.25 6.11663 21.25L34.1666 21.25C34.85 21.25 35.4166 20.6833 35.4166 20C35.4166 19.3167 34.85 18.75 34.1666 18.75L6.11663 18.75C5.4333 18.75 4.86663 19.3167 4.86663 20Z" fill="black"/>
</g>
</g>
</svg>
