<svg width="40" height="40" viewBox="0 0 40 40" fill="none" xmlns="http://www.w3.org/2000/svg">
<g id="vuesax/outline/arrow-down">
<g id="arrow-down">
<path id="Vector" d="M35.4167 20C35.4167 20.3167 35.3 20.6333 35.05 20.8833L24.9334 31C24.45 31.4833 23.65 31.4833 23.1667 31C22.6834 30.5167 22.6834 29.7167 23.1667 29.2333L32.4 20L23.1667 10.7667C22.6834 10.2833 22.6834 9.48332 23.1667 8.99999C23.65 8.51665 24.45 8.51665 24.9334 8.99999L35.05 19.1167C35.3 19.3667 35.4167 19.6833 35.4167 20Z" fill="black"/>
<path id="Vector_2" d="M35.1332 20C35.1332 20.6833 34.5666 21.25 33.8832 21.25L5.83325 21.25C5.14992 21.25 4.58325 20.6833 4.58325 20C4.58325 19.3167 5.14992 18.75 5.83325 18.75L33.8832 18.75C34.5666 18.75 35.1332 19.3167 35.1332 20Z" fill="black"/>
</g>
</g>
</svg>
