<svg width="16" height="15" viewBox="0 0 16 15" fill="none" xmlns="http://www.w3.org/2000/svg">
<g id="Group 165">
<path id="Vector" d="M15.438 9.62659C15.4178 8.50242 15.0918 7.60308 14.4398 6.8971C13.6664 6.04498 12.8165 5.67175 11.8452 5.75494C10.8739 5.83813 10.1702 6.18438 9.6643 6.81616C9.50692 7.01177 9.36752 7.22311 9.23262 7.42771C9.13819 7.57385 9.03701 7.72449 8.93359 7.87738C8.74261 8.15132 8.53143 8.4106 8.3018 8.65306C7.95331 9.00155 7.64754 9.02178 7.45193 8.97682C7.16618 8.90243 6.88657 8.80622 6.61555 8.68903L6.4784 8.63507C6.59531 8.56087 6.70323 8.49567 6.79991 8.42373C7.81841 7.70426 8.25009 6.84988 8.11744 5.84488C7.99603 4.90282 7.49015 4.27104 6.65827 4.03496C6.2488 3.91844 5.83083 3.83424 5.40819 3.78315C4.28401 3.6415 3.288 3.99224 2.45836 4.35422C2.29423 4.42617 2.1301 4.50936 1.97047 4.59255L1.74564 4.70497C1.72791 4.7137 1.71217 4.726 1.69941 4.74108C1.68664 4.75617 1.67712 4.77372 1.67144 4.79265C1.65693 4.82872 1.65693 4.869 1.67144 4.90507L2.63823 6.70374C2.64699 6.72066 2.65903 6.73567 2.67364 6.7479C2.68825 6.76013 2.70515 6.76933 2.72334 6.77498C2.74154 6.78062 2.76068 6.7826 2.77964 6.78079C2.79861 6.77899 2.81703 6.77343 2.83383 6.76445L2.92152 6.71948C2.96085 6.69636 3.00138 6.67535 3.04293 6.65653L3.44763 6.45642C3.74216 6.31253 4.04569 6.16189 4.34697 6.03823C4.6921 5.88568 5.06872 5.81792 5.44537 5.84061C5.82203 5.86329 6.1878 5.97577 6.51212 6.16864C6.60737 6.21483 6.68327 6.29315 6.72645 6.38979C6.76963 6.48644 6.77733 6.59523 6.7482 6.697C6.68974 7.03875 6.4784 7.26133 6.04672 7.4412C5.52291 7.64693 4.9471 7.68001 4.40318 7.53563C4.25928 7.50415 4.11314 7.46818 3.95351 7.42996L3.71518 7.3715C3.69047 7.36479 3.66439 7.36502 3.6398 7.37216C3.61521 7.3793 3.59306 7.39307 3.57579 7.41197C3.55826 7.43059 3.54577 7.45336 3.53947 7.47814C3.53318 7.50292 3.5333 7.52889 3.53981 7.55362L4.21432 9.87166C4.21959 9.89105 4.22894 9.90911 4.24173 9.92461C4.25452 9.94012 4.27047 9.95272 4.28851 9.96159C4.30726 9.96996 4.32756 9.97429 4.34809 9.97429C4.36862 9.97429 4.38893 9.96996 4.40767 9.96159C4.88131 9.79142 5.39072 9.74574 5.88708 9.82894C6.10855 9.84853 6.32091 9.92631 6.50264 10.0544C6.68436 10.1825 6.829 10.3564 6.9219 10.5583C7.01479 10.7603 7.05265 10.9833 7.03162 11.2046C7.01059 11.426 6.93143 11.6378 6.80216 11.8187C6.50834 12.2005 6.11116 12.49 5.65775 12.6529C4.98402 12.8738 4.26164 12.9003 3.57354 12.7293C2.97869 12.6248 2.42975 12.3417 1.9997 11.9177C1.37912 11.284 0.928968 10.5035 0.691163 9.64907C0.603478 9.37927 0.538276 9.10497 0.466329 8.81718C0.434852 8.68903 0.403376 8.55638 0.36965 8.42597C0.361821 8.39636 0.344884 8.36996 0.321234 8.35049C0.297583 8.33102 0.268414 8.31948 0.237848 8.31749C0.207282 8.31551 0.176863 8.32317 0.15089 8.33941C0.124918 8.35565 0.104704 8.37964 0.0931042 8.40799C0.0754889 8.43892 0.0654713 8.4736 0.0638757 8.50916C0.0638757 8.6598 0.0458889 8.81494 0.0346472 8.95883C-0.00212089 9.31059 -0.00964103 9.6648 0.0121639 10.0178C0.12685 11.2978 0.655701 12.5054 1.51855 13.4578C1.97118 13.9737 2.53667 14.3784 3.17109 14.6404C3.18605 14.6564 3.20452 14.6687 3.22505 14.6764C3.78364 14.8923 4.37763 15.0021 4.9765 15.0001H5.00798C5.59759 15.0004 6.18271 14.8977 6.73696 14.6966C7.43619 14.4425 7.89036 14.0806 8.16465 13.5589C8.41723 13.0542 8.56484 12.5035 8.59859 11.9401C8.62398 11.3353 8.50933 10.7329 8.26358 10.1797C8.22536 10.083 8.18714 9.98857 8.14442 9.8874C8.26808 9.8874 8.39399 9.90538 8.5154 9.91662C8.81427 9.94954 9.11586 9.94954 9.41473 9.91662C10.1275 9.81545 10.703 9.413 11.2134 8.6553C11.484 8.26321 11.7977 7.90271 12.1487 7.5806C12.3615 7.37841 12.6422 7.26295 12.9356 7.25684C13.1879 7.2623 13.4322 7.34683 13.6339 7.4985C13.8355 7.65017 13.9845 7.86134 14.0598 8.10221C14.149 8.37071 14.2086 8.64816 14.2374 8.9296C14.3107 9.46971 14.2157 10.0193 13.9654 10.5034C13.5517 11.2611 12.5399 11.8142 11.5619 11.8187C11.3916 11.8181 11.222 11.7985 11.056 11.7603C10.7464 11.7113 10.4598 11.5669 10.2361 11.3472C10.0124 11.1276 9.86283 10.8436 9.80819 10.5349C9.7947 10.4787 9.78571 10.4225 9.77447 10.3618L9.76098 10.2786C9.75516 10.2486 9.7401 10.2213 9.71792 10.2003C9.69574 10.1793 9.66756 10.1658 9.63732 10.1617H9.56537C9.52961 10.1573 9.49347 10.166 9.46368 10.1863C9.43389 10.2066 9.4125 10.237 9.40349 10.2719C9.38775 10.3371 9.36752 10.4045 9.34503 10.4742C9.29082 10.6291 9.25534 10.7898 9.23936 10.9531C9.23936 11.07 9.23936 11.1892 9.23936 11.3061C9.21862 11.3356 9.20833 11.3712 9.21013 11.4073C9.25129 11.9516 9.4109 12.4803 9.67779 12.9564C9.87938 13.3586 10.2093 13.6822 10.6153 13.876C11.0634 14.0815 11.5501 14.1888 12.043 14.1907H12.0858C12.6913 14.1935 13.2844 14.0189 13.7918 13.6885C14.2992 13.358 14.6988 12.8862 14.9412 12.3313C15.3162 11.4811 15.4864 10.5546 15.438 9.62659Z" fill="white"/>
<path id="Vector_2" d="M9.85538 4.8056C10.323 4.95058 10.8093 5.02633 11.2988 5.03043C12.0542 5.02522 12.7991 4.85244 13.4797 4.52455H13.5067L13.5719 4.49308L13.6596 4.43237L13.709 4.40539L13.781 4.36942L13.817 4.34918L13.9204 4.29297C14.071 4.20754 14.2104 4.11311 14.3566 4.01193L14.5612 3.87253C14.5778 3.86119 14.592 3.84656 14.6028 3.82955C14.6136 3.81254 14.6209 3.79351 14.6241 3.77361C14.6275 3.75371 14.6264 3.73331 14.6209 3.71388C14.6155 3.69445 14.6058 3.67646 14.5926 3.66119L14.2869 3.28572L13.7113 2.57974C13.6438 2.49205 13.5741 2.40661 13.5044 2.32118C13.4791 2.28364 13.4458 2.25212 13.407 2.22881C13.3681 2.20551 13.3247 2.19099 13.2796 2.18628C13.2335 2.1852 13.1876 2.1934 13.1448 2.21039C13.1019 2.22739 13.0629 2.25283 13.03 2.2852C12.8789 2.41569 12.7197 2.53658 12.5534 2.64719C11.934 3.092 11.178 3.30525 10.4175 3.24974C9.03698 3.11259 8.10392 2.47406 7.57106 1.30043C7.55786 1.272 7.53588 1.24857 7.50835 1.23359C7.48082 1.21861 7.44921 1.21288 7.41817 1.21724C7.38717 1.2213 7.35833 1.23534 7.33602 1.25724C7.3137 1.27915 7.29913 1.30773 7.29451 1.33865C7.20044 1.87971 7.2791 2.43665 7.51935 2.93048C7.96902 3.84331 8.75369 4.47284 9.85538 4.8056Z" fill="white"/>
<path id="Vector_3" d="M9.12038 1.55944L9.41041 1.80451C9.75891 2.10354 10.0849 2.38683 10.4334 2.66788C10.4892 2.70711 10.5564 2.72687 10.6245 2.72409C10.6979 2.72709 10.7701 2.70487 10.8291 2.66113C11.1956 2.33962 11.5598 2.00687 11.9128 1.68535L12.0837 1.53022C12.1119 1.50375 12.1328 1.47045 12.1444 1.43354V1.4133C12.1588 1.38479 12.1633 1.35231 12.1572 1.32097C12.1511 1.28963 12.1347 1.2612 12.1107 1.24018L10.7369 0.037317C10.7105 0.0133025 10.676 0 10.6403 0C10.6045 0 10.5701 0.0133025 10.5436 0.037317L9.12487 1.33911C9.108 1.35259 9.09438 1.36969 9.08502 1.38915C9.07566 1.40861 9.0708 1.42993 9.0708 1.45152C9.0708 1.47312 9.07566 1.49444 9.08502 1.5139C9.09438 1.53336 9.108 1.55046 9.12487 1.56394L9.12038 1.55944Z" fill="white"/>
</g>
</svg>
