<svg width="19" height="19" viewBox="0 0 19 19" fill="none" xmlns="http://www.w3.org/2000/svg">
<g id="vuesax/outline/menu">
<g id="menu">
<path id="Vector" d="M16.2838 6.0095H2.32625C2.00833 6.0095 1.74469 5.74586 1.74469 5.42794C1.74469 5.11002 2.00833 4.84637 2.32625 4.84637H16.2838C16.6017 4.84637 16.8653 5.11002 16.8653 5.42794C16.8653 5.74586 16.6017 6.0095 16.2838 6.0095Z" fill="#A1A1AA"/>
<path id="Vector_2" d="M16.2838 9.88657H2.32625C2.00833 9.88657 1.74469 9.62293 1.74469 9.30501C1.74469 8.98709 2.00833 8.72345 2.32625 8.72345H16.2838C16.6017 8.72345 16.8653 8.98709 16.8653 9.30501C16.8653 9.62293 16.6017 9.88657 16.2838 9.88657Z" fill="#A1A1AA"/>
<path id="Vector_3" d="M16.2838 13.7636H2.32625C2.00833 13.7636 1.74469 13.5 1.74469 13.1821C1.74469 12.8642 2.00833 12.6005 2.32625 12.6005H16.2838C16.6017 12.6005 16.8653 12.8642 16.8653 13.1821C16.8653 13.5 16.6017 13.7636 16.2838 13.7636Z" fill="#A1A1AA"/>
</g>
</g>
</svg>
