<svg width="20" height="20" viewBox="0 0 20 20" fill="none" xmlns="http://www.w3.org/2000/svg">
<g id="vuesax/linear/shopping-cart">
<g id="shopping-cart">
<path id="Vector" d="M1.6665 1.66666H3.11651C4.01651 1.66666 4.72484 2.44166 4.64984 3.33332L3.95817 11.6333C3.8415 12.9916 4.9165 14.1583 6.28317 14.1583H15.1582C16.3582 14.1583 17.4082 13.175 17.4998 11.9833L17.9498 5.73333C18.0498 4.34999 16.9998 3.22499 15.6082 3.22499H4.84984" stroke="#A1A1AA" stroke-width="1.5" stroke-miterlimit="10" stroke-linecap="round" stroke-linejoin="round"/>
<path id="Vector_2" d="M13.5417 18.3333C14.117 18.3333 14.5833 17.867 14.5833 17.2917C14.5833 16.7164 14.117 16.25 13.5417 16.25C12.9664 16.25 12.5 16.7164 12.5 17.2917C12.5 17.867 12.9664 18.3333 13.5417 18.3333Z" stroke="#A1A1AA" stroke-width="1.5" stroke-miterlimit="10" stroke-linecap="round" stroke-linejoin="round"/>
<path id="Vector_3" d="M6.87516 18.3333C7.45046 18.3333 7.91683 17.867 7.91683 17.2917C7.91683 16.7164 7.45046 16.25 6.87516 16.25C6.29987 16.25 5.8335 16.7164 5.8335 17.2917C5.8335 17.867 6.29987 18.3333 6.87516 18.3333Z" stroke="#A1A1AA" stroke-width="1.5" stroke-miterlimit="10" stroke-linecap="round" stroke-linejoin="round"/>
<path id="Vector_4" d="M7.5 6.66666H17.5" stroke="#A1A1AA" stroke-width="1.5" stroke-miterlimit="10" stroke-linecap="round" stroke-linejoin="round"/>
</g>
</g>
</svg>
